PathFileType	4	(X/Y/Z)	/Users/itak/Documents/Research/Walk-IL/dataset/trc/00061_00006.trc
DataRate	CameraRate	NumFrames	NumMarkers	Units	OrigDataRate	OrigDataStartFrame	OrigNumFrames
100.000000	100.000000	4	53	mm	100.000000	297	793
Frame#	Time	RPSI			LPSI			L3			STRN			T10			C7			CLAV			RBAK			LBAK			LSHO			LUPA			LAEL			LAOL			LWTS			LWPS			LFRA			LIFD			LHPS			LHTS			RSHO			RUPA			RAEL			RAOL			RWTS			RWPS			RFRA			RIFD			RHTS			RHPS			RBHD			LFHD			RFHD			LBHD			LHIP			RHIP			RASI			LASI			LKNE			LTHI			LANK			LTIP			LTOE			LMT1			LMT5			LHEE			RKNE			RTHI			RANK			RTIP			RTOE			RMT1			RMT5			RHEE			
		X1	Y1	Z1	X2	Y2	Z2	X3	Y3	Z3	X4	Y4	Z4	X5	Y5	Z5	X6	Y6	Z6	X7	Y7	Z7	X8	Y8	Z8	X9	Y9	Z9	X10	Y10	Z10	X11	Y11	Z11	X12	Y12	Z12	X13	Y13	Z13	X14	Y14	Z14	X15	Y15	Z15	X16	Y16	Z16	X17	Y17	Z17	X18	Y18	Z18	X19	Y19	Z19	X20	Y20	Z20	X21	Y21	Z21	X22	Y22	Z22	X23	Y23	Z23	X24	Y24	Z24	X25	Y25	Z25	X26	Y26	Z26	X27	Y27	Z27	X28	Y28	Z28	X29	Y29	Z29	X30	Y30	Z30	X31	Y31	Z31	X32	Y32	Z32	X33	Y33	Z33	X34	Y34	Z34	X35	Y35	Z35	X36	Y36	Z36	X37	Y37	Z37	X38	Y38	Z38	X39	Y39	Z39	X40	Y40	Z40	X41	Y41	Z41	X42	Y42	Z42	X43	Y43	Z43	X44	Y44	Z44	X45	Y45	Z45	X46	Y46	Z46	X47	Y47	Z47	X48	Y48	Z48	X49	Y49	Z49	X50	Y50	Z50	X51	Y51	Z51	X52	Y52	Z52	X53	Y53	Z53	

298	2.97	921.926513671875	1001.124694824219	51.69479751586914	751.24951171875	983.3298950195312	88.1888427734375	834.3353881835938	1048.767700195312	67.05552673339844	793.3047485351562	1246.631469726562	-187.5434265136719	835.7100830078125	1183.341064453125	81.56422424316406	825.6109619140625	1449.293334960938	19.71390914916992	796.2708129882812	1361.144897460938	-156.9627838134766	909.2163696289062	1310.950927734375	70.67896270751953	730.9213256835938	1414.055786132812	59.34430313110352	642.0084228515625	1417.802368164062	-29.92708969116211	563.877197265625	1299.280883789062	10.14487934112549	525.7067260742188	1088.164306640625	19.13624954223633	624.8599853515625	1070.626342773438	58.14774703979492	542.883544921875	838.0846557617188	-62.10709381103516	502.3973693847656	837.4965209960938	11.95944786071777	504.3243103027344	979.3471069335938	12.37553310394287	549.9219360351562	650.3190307617188	-55.84901428222656	493.4837951660156	752.7117919921875	-10.50442314147949	530.0597534179688	752.6569213867188	-71.46970367431641	986.19873046875	1413.69482421875	-70.37685394287109	1051.025512695312	1347.815673828125	-67.95858764648438	1115.068481445312	1094.819702148438	-37.99898910522461	1021.881103515625	1064.989379882812	-36.96691131591797	1066.816650390625	843.9479370117188	-182.4168090820312	1124.927001953125	830.5156860351562	-119.0679931640625	1127.492797851562	1012.776550292969	-53.35537338256836	1050.230712890625	651.7850952148438	-173.5305328369141	1064.777221679688	736.9462280273438	-199.656494140625	1123.343627929688	740.7622680664062	-149.0309600830078	801.5684204101562	1619.704345703125	12.62105178833008	824.7634887695312	1666.959838867188	-196.2325744628906	713.2965087890625	1666.000732421875	-136.8169250488281	916.7338256835938	1614.080200195312	-61.31187057495117	651.287353515625	920.43798828125	-7.675654888153076	993.7417602539062	931.7686767578125	-18.45588111877441	960.1802978515625	942.4949340820312	-141.0862121582031	693.1173706054688	932.48388671875	-123.1677398681641	723.36181640625	503.4399108886719	-240.1208038330078	673.229248046875	617.8933715820312	-154.5998840332031	766.3606567382812	40.24648284912109	-211.3780670166016	733.0267333984375	249.0541229248047	-227.8498382568359	739.7106323242188	35.78149795532227	-415.3005981445312	798.059814453125	31.14674377441406	-375.6885070800781	711.636474609375	39.34046173095703	-305.2083435058594	849.5914306640625	36.67942047119141	-173.82568359375	1018.972534179688	489.5194091796875	-46.20635986328125	1006.041320800781	757.1399536132812	-84.46012878417969	1077.186645507812	164.9366607666016	328.868408203125	1045.245727539062	396.732421875	38.78480911254883	1062.494506835938	26.68098068237305	186.9698181152344	1016.585327148438	57.57317352294922	217.2748718261719	1107.582275390625	71.67649841308594	253.7087097167969	1016.431396484375	197.2857971191406	349.6847229003906	
299	2.98	918.4910278320312	1001.211059570312	41.50201416015625	748.2506713867188	984.1466674804688	79.88881683349609	830.9439086914062	1049.513916015625	57.80908584594727	787.4445190429688	1247.811767578125	-196.1664886474609	832.4453125	1184.043701171875	72.09030151367188	822.1647338867188	1450.205444335938	11.06851863861084	790.8757934570312	1362.276000976562	-165.4673919677734	906.2842407226562	1311.619506835938	61.14411544799805	727.9580078125	1414.89892578125	51.63866806030273	637.9960327148438	1418.996215820312	-36.78481292724609	560.2628784179688	1300.428100585938	3.793379306793213	521.792724609375	1089.185791015625	12.44429206848145	621.3292236328125	1071.542846679688	50.5755500793457	539.1161499023438	840.0382690429688	-71.44012451171875	499.3890991210938	838.391357421875	3.00602650642395	500.7254333496094	980.267578125	4.905174255371094	547.2333374023438	652.2766723632812	-67.45039367675781	490.98779296875	753.76220703125	-20.27618408203125	526.5684204101562	754.6809692382812	-81.66055297851562	981.7777709960938	1414.435180664062	-80.77291870117188	1046.475341796875	1348.417846679688	-79.11274719238281	1110.56298828125	1095.515014648438	-49.73522567749023	1017.259826660156	1065.497924804688	-47.49265670776367	1060.511962890625	843.9143676757812	-192.3106994628906	1119.4375	830.93359375	-129.6602020263672	1122.742065429688	1013.484558105469	-64.96122741699219	1043.71337890625	651.8048706054688	-181.6247406005859	1058.111206054688	736.689453125	-208.6773986816406	1117.348510742188	740.8588256835938	-158.8537139892578	798.4755249023438	1620.827270507812	4.45688533782959	818.806884765625	1668.14892578125	-204.6838073730469	708.1396484375	1667.194091796875	-143.7703857421875	912.5950317382812	1615.239624023438	-71.05938720703125	647.2531127929688	921.3900146484375	-14.529465675354	989.36572265625	931.6278686523438	-29.75969314575195	954.570068359375	943.5391235351562	-151.96875	687.7622680664062	933.31640625	-130.8990325927734	721.5630493164062	502.8863830566406	-245.4817962646484	670.9357299804688	617.7412109375	-160.5562133789062	766.3600463867188	40.43868255615234	-211.7140502929688	732.4042358398438	248.6368255615234	-230.5498504638672	739.9689331054688	35.56595611572266	-415.5539855957031	798.3988647460938	30.72022819519043	-375.9695129394531	711.9229736328125	39.44843673706055	-305.6071166992188	849.6600952148438	36.70820236206055	-174.0164031982422	1015.010803222656	489.0756225585938	-66.74806976318359	1001.153930664062	757.6197509765625	-98.87786865234375	1079.224853515625	175.3445434570312	314.8599853515625	1042.279174804688	397.4649353027344	18.43548393249512	1061.931640625	27.80728912353516	179.0436553955078	1016.35107421875	62.25348281860352	209.0233764648438	1108.012939453125	78.92854309082031	243.0654754638672	1018.832885742188	208.2199401855469	335.4141540527344	
300	2.99	915.1414794921875	1001.229919433594	31.47438049316406	745.421630859375	984.9485473632812	71.85101318359375	827.6069946289062	1050.311401367188	48.82089614868164	781.7503051757812	1248.919677734375	-204.5227813720703	829.2290649414062	1184.806640625	62.85965728759766	818.754150390625	1451.16064453125	2.579476356506348	785.6046142578125	1363.350708007812	-173.7740173339844	903.3571166992188	1312.3515625	51.82290267944336	725.0112915039062	1415.775634765625	44.06862640380859	634.0369262695312	1420.121215820312	-43.54819488525391	556.760498046875	1301.494750976562	-2.440211296081543	517.8641967773438	1090.146728515625	5.873758316040039	617.7446899414062	1072.369995117188	43.16848754882812	535.3035278320312	842.0032958984375	-80.72610473632812	496.3557739257812	839.22998046875	-5.904994010925293	497.0914001464844	981.1251220703125	-2.459081649780273	544.4028930664062	654.2894897460938	-79.26319885253906	488.4688415527344	754.7994384765625	-30.11437225341797	522.9840698242188	756.7728271484375	-91.90946960449219	977.4358520507812	1415.139770507812	-90.93663024902344	1042.003173828125	1348.973022460938	-89.97626495361328	1106.038696289062	1096.09814453125	-61.19100570678711	1012.597412109375	1065.873413085938	-57.84341430664062	1054.279663085938	843.8389892578125	-201.9947662353516	1114.006469726562	831.2821044921875	-140.0462646484375	1117.988037109375	1014.106018066406	-76.31443023681641	1037.476928710938	651.7906494140625	-189.7480010986328	1051.615234375	736.4362182617188	-217.5963897705078	1111.492431640625	740.9339599609375	-168.5674438476562	795.3973388671875	1621.916870117188	-3.59976863861084	812.8526000976562	1669.332397460938	-212.9809875488281	703.0411987304688	1668.37109375	-150.5476379394531	908.4544677734375	1616.380615234375	-80.68080139160156	643.3358764648438	922.3077392578125	-21.06524085998535	984.9898071289062	931.4227294921875	-40.97332382202148	948.9445190429688	944.5679321289062	-162.7183380126953	682.5010375976562	934.1348876953125	-138.2688140869141	719.5650634765625	502.2822875976562	-250.2829742431641	668.6903076171875	617.5554809570312	-165.9586486816406	766.3494873046875	40.58523178100586	-211.9361572265625	731.6898193359375	248.1944122314453	-232.8173522949219	740.1405639648438	35.55103302001953	-415.6727600097656	798.6505126953125	30.46312141418457	-376.1419677734375	712.1236572265625	39.52595138549805	-305.8637084960938	849.7576904296875	36.71368408203125	-174.1553344726562	1010.491455078125	488.8439636230469	-87.42165374755859	996.1239624023438	758.2302856445312	-113.3288879394531	1080.7734375	185.171630859375	299.7361755371094	1038.678833007812	398.3049011230469	-2.194704532623291	1060.796875	29.92963409423828	169.0696105957031	1015.585815429688	67.53105926513672	199.0662384033203	1107.963745117188	86.43914794921875	230.5646209716797	1020.766906738281	218.5008697509766	320.3656616210938	
301	3	911.910400390625	1001.284912109375	21.5682373046875	742.7906494140625	985.7749633789062	64.04923248291016	824.3602294921875	1051.190551757812	40.05364227294922	776.2081909179688	1249.994750976562	-212.6265411376953	826.0872192382812	1185.651489257812	53.88286972045898	815.3925170898438	1452.1689453125	-5.751120567321777	780.45458984375	1364.404663085938	-181.8815307617188	900.4070434570312	1313.167602539062	42.6727294921875	722.08984375	1416.7119140625	36.64409637451172	630.1421508789062	1421.206909179688	-50.20220565795898	553.3687133789062	1302.51318359375	-8.556138038635254	513.9688720703125	1091.08154296875	-0.5829141139984131	614.1591796875	1073.1416015625	35.9215087890625	531.4617309570312	844.007080078125	-89.94623565673828	493.3057861328125	840.06298828125	-14.76381206512451	493.4497680664062	981.9661254882812	-9.721246719360352	541.3971557617188	656.3883056640625	-91.22384643554688	485.8482360839844	755.8854370117188	-39.998779296875	519.31201171875	758.95751953125	-102.1796646118164	973.1678466796875	1415.8515625	-100.8771591186523	1037.610595703125	1349.532836914062	-100.5622406005859	1101.480590820312	1096.626953125	-72.34649658203125	1007.894836425781	1066.20654296875	-68.01228332519531	1048.132690429688	843.7730712890625	-211.4629821777344	1108.629028320312	831.6112670898438	-150.1918640136719	1113.215698242188	1014.692565917969	-87.38701629638672	1031.550170898438	651.783447265625	-197.9332733154297	1045.325561523438	736.2431030273438	-226.4217224121094	1105.788330078125	741.0443725585938	-178.1528625488281	792.3186645507812	1622.987426757812	-11.55068492889404	806.9002685546875	1670.525756835938	-221.1273956298828	697.9973754882812	1669.535522460938	-157.1594696044922	904.304931640625	1617.526489257812	-90.1685791015625	639.5533447265625	923.2116088867188	-27.30171203613281	980.6292724609375	931.271240234375	-52.14046859741211	943.2660522460938	945.6168823242188	-173.3619537353516	677.3075561523438	934.9744873046875	-145.27197265625	717.3417358398438	501.6331176757812	-254.5257873535156	666.4898071289062	617.3365478515625	-170.77783203125	766.3241577148438	40.67459487915039	-212.0566711425781	730.853759765625	247.7377166748047	-234.6806488037109	740.2334594726562	35.63526916503906	-415.6961059570312	798.8084716796875	30.33624076843262	-376.2256164550781	712.2227783203125	39.54786682128906	-306.0066528320312	849.8534545898438	36.7116584777832	-174.2427673339844	1005.409362792969	488.8951416015625	-108.1630859375	990.9254760742188	759.0364379882812	-127.8012084960938	1081.771850585938	194.1991271972656	283.5220336914062	1034.472045898438	399.3300476074219	-23.00197219848633	1059.010620117188	33.08088684082031	156.9554443359375	1014.267211914062	73.21368408203125	187.2942504882812	1107.395874023438	93.90423583984375	216.1663970947266	1022.176635742188	227.9093627929688	304.5562744140625	
